<?xml version="1.0" encoding="UTF-8" standalone="no"?>
<svg
   width="134"
   height="140"
   viewBox="0 0 134 140"
   fill="none"
   version="1.1"
   id="svg6"
   sodipodi:docname="shape_05.svg"
   xml:space="preserve"
   inkscape:version="1.4.3 (0d15f75, 2025-12-25)"
   xmlns:inkscape="http://www.inkscape.org/namespaces/inkscape"
   xmlns:sodipodi="http://sodipodi.sourceforge.net/DTD/sodipodi-0.dtd"
   xmlns="http://www.w3.org/2000/svg"
   xmlns:svg="http://www.w3.org/2000/svg"><defs
     id="defs6"><style
       id="style1">.a{fill:none;stroke:#000000;stroke-linecap:round;stroke-linejoin:round;}</style></defs><sodipodi:namedview
     id="namedview6"
     pagecolor="#ffffff"
     bordercolor="#000000"
     borderopacity="0.25"
     inkscape:showpageshadow="2"
     inkscape:pageopacity="0.0"
     inkscape:pagecheckerboard="0"
     inkscape:deskcolor="#d1d1d1"
     inkscape:zoom="3.5357143"
     inkscape:cx="124.86869"
     inkscape:cy="68.30303"
     inkscape:window-width="1366"
     inkscape:window-height="697"
     inkscape:window-x="-8"
     inkscape:window-y="-8"
     inkscape:window-maximized="1"
     inkscape:current-layer="svg6" /><path
     d="M30.7403 102.636H46.8722C48.0657 102.636 48.0702 101.066 46.8722 101.066H30.7403C29.5423 101.066 29.5423 102.636 30.7403 102.636Z"
     fill="#10100E"
     id="path3" /><path
     d="M38.0394 109.127V93.6815C38.0394 92.4674 36.4805 92.4674 36.4805 93.6815V109.127C36.4805 110.346 38.0394 110.346 38.0394 109.127Z"
     fill="#10100E"
     id="path4" /><path
     d="M106.659 45.1682C108.605 48.954 114.269 48.9437 116.913 45.6247C119.776 42.0303 117.271 37.0511 113.648 35.5002C109.63 33.7832 104.726 36.7089 103.885 41.1257C103.044 45.5426 106.99 49.2369 111.209 48.5367C112.342 48.3512 111.899 46.6125 110.78 46.8006C107.603 47.3252 104.822 44.1539 105.718 40.9793C106.615 37.8047 110.284 35.8601 113.2 37.2965C115.481 38.4176 117.329 41.498 115.854 44.0607C114.235 46.8647 109.663 47.062 108.204 44.2424C107.678 43.2229 106.127 44.1504 106.652 45.1639L106.659 45.1682Z"
     fill="#10100E"
     id="path5" /><g
     style="fill:none"
     id="g6"
     transform="matrix(0.18943109,0,0,0.18943109,30.849704,23.469866)"><path
       d="M 80.6217,59.1676 C 116.502,55.4997 339,45.6991 339,63.5823 339,150.887 351.127,311.5 339,325.495 319.5,348 89.0019,353 73.6589,338.949 58.6562,325.21 64.7292,157.8 64.7292,103.154"
       stroke="#000000"
       stroke-opacity="0.9"
       stroke-width="16"
       stroke-linecap="round"
       stroke-linejoin="round"
       id="path1" /></g></svg>
