<?xml version="1.0" encoding="UTF-8" standalone="no"?>
<svg
   width="128"
   height="134"
   viewBox="0 0 128 134"
   fill="none"
   version="1.1"
   id="svg4"
   sodipodi:docname="shape_09.svg"
   xml:space="preserve"
   inkscape:version="1.4.3 (0d15f75, 2025-12-25)"
   xmlns:inkscape="http://www.inkscape.org/namespaces/inkscape"
   xmlns:sodipodi="http://sodipodi.sourceforge.net/DTD/sodipodi-0.dtd"
   xmlns="http://www.w3.org/2000/svg"
   xmlns:svg="http://www.w3.org/2000/svg"><defs
     id="defs4" /><sodipodi:namedview
     id="namedview4"
     pagecolor="#ffffff"
     bordercolor="#000000"
     borderopacity="0.25"
     inkscape:showpageshadow="2"
     inkscape:pageopacity="0.0"
     inkscape:pagecheckerboard="0"
     inkscape:deskcolor="#d1d1d1"
     inkscape:zoom="1.3060368"
     inkscape:cx="115.9998"
     inkscape:cy="0.38283761"
     inkscape:window-width="1366"
     inkscape:window-height="697"
     inkscape:window-x="-8"
     inkscape:window-y="-8"
     inkscape:window-maximized="1"
     inkscape:current-layer="svg4" /><path
     d="M98.897 95.1971C96.2042 103.6 104.518 111.891 113.253 110.905C122.712 109.835 126.332 98.8618 123.295 91.2755C119.923 82.867 108.453 79.9628 100.753 85.2038C93.0522 90.4447 93.4237 101.647 100.631 106.808C102.562 108.197 104.459 104.999 102.544 103.633C97.1219 99.7439 97.6907 91.0163 103.653 87.6778C109.616 84.3394 117.84 86.8701 120.009 93.2521C121.709 98.2401 119.906 105.465 113.992 107.059C107.514 108.795 100.525 102.378 102.517 96.1062C103.239 93.8403 99.608 92.925 98.8924 95.1799L98.897 95.1971Z"
     fill="#10100E"
     id="path3" /><g
     style="fill:none"
     id="g4"
     transform="matrix(0.25403089,0,0,0.25403089,-0.32680491,2.3836829)"><path
       d="M 80.6217,59.1676 C 116.502,55.4997 339,45.6991 339,63.5823 339,150.887 351.127,311.5 339,325.495 319.5,348 89.0019,353 73.6589,338.949 58.6562,325.21 64.7292,157.8 64.7292,103.154"
       stroke="#000000"
       stroke-opacity="0.9"
       stroke-width="16"
       stroke-linecap="round"
       stroke-linejoin="round"
       id="path1" /></g></svg>
