<?xml version="1.0" encoding="UTF-8" standalone="no"?>
<svg
   width="149"
   height="165"
   viewBox="0 0 149 165"
   fill="none"
   version="1.1"
   id="svg6"
   sodipodi:docname="shape_03.svg"
   xml:space="preserve"
   inkscape:version="1.4.3 (0d15f75, 2025-12-25)"
   xmlns:inkscape="http://www.inkscape.org/namespaces/inkscape"
   xmlns:sodipodi="http://sodipodi.sourceforge.net/DTD/sodipodi-0.dtd"
   xmlns="http://www.w3.org/2000/svg"
   xmlns:svg="http://www.w3.org/2000/svg"><defs
     id="defs6" /><sodipodi:namedview
     id="namedview6"
     pagecolor="#ffffff"
     bordercolor="#000000"
     borderopacity="0.25"
     inkscape:showpageshadow="2"
     inkscape:pageopacity="0.0"
     inkscape:pagecheckerboard="0"
     inkscape:deskcolor="#d1d1d1"
     inkscape:zoom="1.0606602"
     inkscape:cx="57.982756"
     inkscape:cy="18.384776"
     inkscape:window-width="1366"
     inkscape:window-height="697"
     inkscape:window-x="-8"
     inkscape:window-y="-8"
     inkscape:window-maximized="1"
     inkscape:current-layer="svg6" /><path
     d="M18.5045 118.254H39.0642C40.5852 118.254 40.591 116.264 39.0642 116.264H18.5045C16.9777 116.264 16.9777 118.254 18.5045 118.254Z"
     fill="#10100E"
     id="path3" /><path
     d="M27.8071 126.484V106.902C27.8071 105.363 25.8203 105.363 25.8203 106.902V126.484C25.8203 128.029 27.8071 128.029 27.8071 126.484Z"
     fill="#10100E"
     id="path4" /><path
     d="M115.055 44.6935C117.418 49.2906 124.295 49.2781 127.506 45.2479C130.983 40.8832 127.94 34.8371 123.541 32.9538C118.663 30.869 112.707 34.4215 111.686 39.7849C110.665 45.1482 115.457 49.6342 120.58 48.7839C121.955 48.5587 121.417 46.4474 120.058 46.6757C116.201 47.3128 112.824 43.4619 113.913 39.607C115.001 35.7521 119.457 33.3908 122.998 35.135C125.767 36.4963 128.011 40.2369 126.22 43.3488C124.255 46.7535 118.702 46.9932 116.931 43.5694C116.292 42.3314 114.409 43.4576 115.046 44.6883L115.055 44.6935Z"
     fill="#10100E"
     id="path5" /><g
     style="fill:none"
     id="g6"
     transform="matrix(0.22793082,0,0,0.22793082,22.666048,27.36828)"><path
       d="M 80.6217,59.1676 C 116.502,55.4997 339,45.6991 339,63.5823 339,150.887 351.127,311.5 339,325.495 319.5,348 89.0019,353 73.6589,338.949 58.6562,325.21 64.7292,157.8 64.7292,103.154"
       stroke="#000000"
       stroke-opacity="0.9"
       stroke-width="16"
       stroke-linecap="round"
       stroke-linejoin="round"
       id="path1" /></g></svg>
