<?xml version="1.0" encoding="UTF-8" standalone="no"?>
<svg
   width="130"
   height="123"
   viewBox="0 0 130 123"
   fill="none"
   version="1.1"
   id="svg4"
   sodipodi:docname="shape_13.svg"
   xml:space="preserve"
   inkscape:version="1.4.3 (0d15f75, 2025-12-25)"
   xmlns:inkscape="http://www.inkscape.org/namespaces/inkscape"
   xmlns:sodipodi="http://sodipodi.sourceforge.net/DTD/sodipodi-0.dtd"
   xmlns="http://www.w3.org/2000/svg"
   xmlns:svg="http://www.w3.org/2000/svg"><defs
     id="defs4" /><sodipodi:namedview
     id="namedview4"
     pagecolor="#ffffff"
     bordercolor="#000000"
     borderopacity="0.25"
     inkscape:showpageshadow="2"
     inkscape:pageopacity="0.0"
     inkscape:pagecheckerboard="0"
     inkscape:deskcolor="#d1d1d1"
     inkscape:zoom="1.0060976"
     inkscape:cx="-99.890909"
     inkscape:cy="246.99394"
     inkscape:window-width="1366"
     inkscape:window-height="697"
     inkscape:window-x="-8"
     inkscape:window-y="-8"
     inkscape:window-maximized="1"
     inkscape:current-layer="svg4" /><path
     d="M95.8343 28.8231C104.029 32.0956 112.88 24.3805 112.505 15.5979C112.097 6.08761 101.404 1.71048 93.6241 4.21083C85.0009 6.98806 81.3037 18.2279 85.9947 26.2751C90.6858 34.3222 101.886 34.733 107.538 27.9034C109.058 26.0739 106 23.958 104.504 25.7733C100.246 30.9111 91.5795 29.7349 88.6651 23.5539C85.7507 17.3729 88.8489 9.34563 95.3667 7.62699C100.461 6.27913 107.543 8.58212 108.72 14.5926C110 21.176 103.111 27.7003 96.9937 25.2758C94.7837 24.3973 93.6173 27.9554 95.8168 28.8265L95.8343 28.8231Z"
     fill="#10100E"
     id="path3" /><g
     style="fill:none"
     id="g4"
     transform="matrix(0.23016235,0,0,0.23016235,8.3625012,28.116457)"><path
       d="M 80.6217,59.1676 C 116.502,55.4997 339,45.6991 339,63.5823 339,150.887 351.127,311.5 339,325.495 319.5,348 89.0019,353 73.6589,338.949 58.6562,325.21 64.7292,157.8 64.7292,103.154"
       stroke="#000000"
       stroke-opacity="0.9"
       stroke-width="16"
       stroke-linecap="round"
       stroke-linejoin="round"
       id="path1-4" /></g></svg>
