<?xml version="1.0" encoding="UTF-8" standalone="no"?>
<svg
   width="77"
   height="63"
   viewBox="0 0 77 63"
   fill="none"
   version="1.1"
   id="svg3"
   sodipodi:docname="icon_31.svg"
   xml:space="preserve"
   inkscape:version="1.4.3 (0d15f75, 2025-12-25)"
   xmlns:inkscape="http://www.inkscape.org/namespaces/inkscape"
   xmlns:sodipodi="http://sodipodi.sourceforge.net/DTD/sodipodi-0.dtd"
   xmlns="http://www.w3.org/2000/svg"
   xmlns:svg="http://www.w3.org/2000/svg"><defs
     id="defs3" /><sodipodi:namedview
     id="namedview3"
     pagecolor="#ffffff"
     bordercolor="#000000"
     borderopacity="0.25"
     inkscape:showpageshadow="2"
     inkscape:pageopacity="0.0"
     inkscape:pagecheckerboard="0"
     inkscape:deskcolor="#d1d1d1"
     inkscape:zoom="2.7779195"
     inkscape:cx="66.416611"
     inkscape:cy="45.897658"
     inkscape:window-width="1366"
     inkscape:window-height="697"
     inkscape:window-x="-8"
     inkscape:window-y="-8"
     inkscape:window-maximized="1"
     inkscape:current-layer="svg3" /><path
     d="m -152.43918,-447.0461 v -22.77966 c 0,-4.12662 -3.04761,-7.17424 -6.99632,-7.17424 h -5.38355 c -3.9487,0 -6.99632,3.04762 -6.99632,7.17424 v 22.77966 c 0,3.9487 3.04762,7.17424 6.99632,7.17424 h 5.38355 c 3.94871,0 6.99632,-3.23128 6.99632,-7.17424 z m -30.31547,4.30454 -16.14492,-15.96125 c -2.69178,-2.69178 -7.35216,-2.69178 -10.04394,0 l -3.76504,3.76504 c -2.69178,2.69178 -2.69178,7.35216 0,10.04394 l 15.96125,16.14492 c 2.69178,2.69177 7.53583,2.69177 10.22186,0 l 3.76505,-3.76505 c 2.69177,-2.69177 2.69177,-7.53582 0,-10.22186 z m 55.24166,13.98691 15.96126,-16.14492 c 2.69177,-2.69178 2.69177,-7.35216 0,-10.04394 l -3.76504,-3.76504 c -2.69178,-2.69178 -7.35217,-2.69178 -10.04394,0 l -16.14492,15.96125 c -2.69178,2.69178 -2.69178,7.53583 0,10.22186 l 3.76504,3.76505 c 2.69178,2.69177 7.53583,2.69177 10.22186,0 z m -96.31277,30.31547 h 22.77966 c 3.9487,0 7.17424,-3.04761 7.17424,-6.99632 v -5.56147 c 0,-3.9487 -3.23128,-6.8184 -7.17424,-6.8184 h -22.77966 c -4.12662,0 -7.17424,2.8697 -7.17424,6.8184 v 5.56147 c 0,3.94871 3.04762,6.99632 7.17424,6.99632 z m 100.61732,0 h 22.77965 c 4.126627,0 7.174246,-3.04761 7.174246,-6.99632 v -5.56147 c 0,-3.9487 -3.047619,-6.8184 -7.174246,-6.8184 h -22.77965 c -3.9487,0 -7.17424,2.8697 -7.17424,6.8184 v 5.56147 c 0,3.94871 3.23127,6.99632 7.17424,6.99632 z m -75.68539,40.70953 16.14492,-15.96126 c 2.69177,-2.69177 2.69177,-7.35216 0,-10.04394 l -3.76505,-3.9487 c -2.69177,-2.69178 -7.53582,-2.69178 -10.22186,0 l -15.96125,16.32284 c -2.69178,2.69177 -2.69178,7.35216 0,10.04394 l 3.76504,3.58712 c 2.69178,2.69177 7.35216,2.69177 10.04394,0 z m 87.34784,-13.63106 -15.96126,-16.32284 c -2.69177,-2.69178 -7.53582,-2.69178 -10.22186,0 l -3.76504,3.9487 c -2.69178,2.69178 -2.69178,7.35217 0,10.04394 l 16.14491,15.96126 c 2.69178,2.69177 7.35217,2.69177 10.04394,0 l 3.76505,-3.58712 c 2.69177,-2.69178 2.69177,-7.35217 0,-10.04394 z m -40.89319,24.93192 v -22.77965 c 0,-3.9487 -3.04761,-7.17424 -6.99632,-7.17424 h -5.38355 c -3.9487,0 -6.99632,3.23127 -6.99632,7.17424 v 22.77965 c 0,4.12663 3.04762,7.17425 6.99632,7.17425 h 5.38355 c 3.94871,0 6.99632,-3.04762 6.99632,-7.17425 z"
     id="path1"
     style="stroke-width:5.73939" /><path
     d="M 158.20001,-85.525005 V -184.75 c 0,-17.975 -13.275,-31.25 -30.475,-31.25 h -23.45 c -17.2,0 -30.475,13.275 -30.475,31.25 v 99.224995 c 0,17.2 13.275,31.25001 30.475,31.25001 h 23.45 c 17.2,0 30.475,-14.07501 30.475,-31.25001 z m -132.050012,18.75 -70.325001,-69.525005 c -11.725,-11.725 -32.024999,-11.725 -43.75,0 l -16.399997,16.4 c -11.725,11.725 -11.725,32.025005 0,43.750005 l 69.524997,70.32501 c 11.725001,11.725 32.8250005,11.725 44.5250005,0 l 16.3999995,-16.4 c 11.725,-11.725 11.725,-32.825 0,-44.52501 z m 240.625012,60.92501 69.525,-70.32501 c 11.725,-11.725 11.725,-32.025005 0,-43.750005 l -16.4,-16.39999 c -11.725,-11.725 -32.025,-11.725 -43.75,0 l -70.325,69.524995 c -11.725,11.72501 -11.725,32.82501 0,44.52501 l 16.4,16.4 c 11.725,11.725 32.825,11.725 44.525,0 z M -152.75,126.20001 h 99.224998 c 17.2,0 31.25,-13.275 31.25,-30.475005 v -24.225 c 0,-17.2 -14.075,-29.7 -31.25,-29.7 H -152.75 c -17.975,0 -31.25,12.5 -31.25,29.7 v 24.225 c 0,17.200005 13.275,30.475005 31.25,30.475005 z m 438.27501,0 h 99.225 c 17.975,0 31.25,-13.275 31.25,-30.475005 v -24.225 c 0,-17.2 -13.275,-29.7 -31.25,-29.7 h -99.225 c -17.2,0 -31.25,12.5 -31.25,29.7 v 24.225 c 0,17.200005 14.075,30.475005 31.25,30.475005 z m -329.675012,177.325 70.325,-69.525 c 11.725,-11.725 11.725,-32.025 0,-43.75 l -16.4000005,-17.2 c -11.725,-11.725 -32.8249995,-11.725 -44.5249995,0 l -69.524998,71.1 c -11.725,11.725 -11.725,32.025 0,43.75 l 16.399998,15.625 c 11.725,11.725 32.025,11.725 43.75,0 z m 380.475012,-59.375 -69.525,-71.10001 c -11.725,-11.725 -32.825,-11.725 -44.525,0 l -16.4,17.2 c -11.725,11.725 -11.725,32.025 0,43.75 l 70.325,69.525 c 11.725,11.725 32.025,11.725 43.75,0 l 16.4,-15.625 c 11.725,-11.725 11.725,-32.025 0,-43.75 z m -178.125,108.6 v -99.225 c 0,-17.2 -13.275,-31.25 -30.475,-31.25 h -23.45 c -17.2,0 -30.475,14.07499 -30.475,31.25 v 99.225 c 0,17.975 13.275,31.25 30.475,31.25 h 23.45 c 17.2,0 30.475,-13.275 30.475,-31.25 z"
     id="path1-0"
     style="stroke-width:25" /><path
     d="M 127.20001,-119.52501 V -218.75 c 0,-17.975 -13.275,-31.25 -30.475,-31.25 h -23.45 c -17.2,0 -30.475,13.275 -30.475,31.25 v 99.22499 c 0,17.2 13.275,31.250015 30.475,31.250015 h 23.45 c 17.2,0 30.475,-14.075015 30.475,-31.250015 z m -132.0500125,18.75 -70.3250005,-69.525 c -11.725,-11.725 -32.024997,-11.725 -43.749997,0 l -16.4,16.4 c -11.725,11.725 -11.725,32.025 0,43.75 l 69.524997,70.325015 c 11.725001,11.725 32.825,11.725 44.525001,0 l 16.3999995,-16.4 c 11.725,-11.725 11.725,-32.825 0,-44.525015 z m 240.6250125,60.925015 69.525,-70.325015 c 11.725,-11.72499 11.725,-32.02499 0,-43.74999 l -16.4,-16.4 c -11.725,-11.725 -32.025,-11.725 -43.75,0 l -70.325,69.52499 c -11.725,11.725015 -11.725,32.825015 0,44.525015 l 16.4,16.4 c 11.725,11.725 32.825,11.725 44.525,0 z m -419.52501,132.05 h 99.224998 c 17.2,0 31.25,-13.275 31.25,-30.475 v -24.225 c 0,-17.2 -14.075,-29.7 -31.25,-29.7 H -183.75 c -17.975,0 -31.25,12.5 -31.25,29.7 v 24.225 c 0,17.2 13.275,30.475 31.25,30.475 z m 438.27501,0 h 99.225 c 17.975,0 31.25,-13.275 31.25,-30.475 v -24.225 c 0,-17.2 -13.275,-29.7 -31.25,-29.7 h -99.225 c -17.2,0 -31.25,12.5 -31.25,29.7 v 24.225 c 0,17.2 14.075,30.475 31.25,30.475 z m -329.675012,177.325005 70.3249995,-69.525 c 11.725,-11.725 11.725,-32.025 0,-43.75 l -16.3999995,-17.2 c -11.725,-11.725 -32.825,-11.725 -44.525,0 l -69.524998,71.1 c -11.725,11.725 -11.725,32.025 0,43.75 l 16.4,15.625 c 11.725,11.725 32.024998,11.725 43.749998,0 z m 380.475012,-59.375 -69.525,-71.10001 c -11.725,-11.725 -32.825,-11.725 -44.525,0 l -16.4,17.2 c -11.725,11.725 -11.725,32.025 0,43.75 l 70.325,69.525 c 11.725,11.725 32.025,11.725 43.75,0 l 16.4,-15.625 c 11.725,-11.725 11.725,-32.025 0,-43.75 z m -178.125,108.6 v -99.225 c 0,-17.2 -13.275,-31.25 -30.475,-31.25 h -23.45 c -17.2,0 -30.475,14.07499 -30.475,31.25 v 99.225 c 0,17.975 13.275,31.25 30.475,31.25 h 23.45 c 17.2,0 30.475,-13.275 30.475,-31.25 z"
     id="path1-9"
     style="stroke-width:25" /><g
     style="fill:#000000"
     id="g3"
     transform="matrix(2.3030303,0,0,2.3030303,10.92727,-4.8593588)"><path
       d="M 13.688,9.219 V 5.25 C 13.688,4.531 13.157,4 12.469,4 h -0.938 c -0.688,0 -1.219,0.531 -1.219,1.25 v 3.969 c 0,0.688 0.531,1.25 1.219,1.25 h 0.938 c 0.688,0 1.219,-0.563 1.219,-1.25 z M 8.406,9.969 5.593,7.188 C 5.124,6.719 4.312,6.719 3.843,7.188 L 3.187,7.844 c -0.469,0.469 -0.469,1.281 0,1.75 l 2.781,2.813 c 0.469,0.469 1.313,0.469 1.781,0 l 0.656,-0.656 c 0.469,-0.469 0.469,-1.313 0,-1.781 z m 9.625,2.437 2.781,-2.813 c 0.469,-0.469 0.469,-1.281 0,-1.75 L 20.156,7.187 c -0.469,-0.469 -1.281,-0.469 -1.75,0 l -2.813,2.781 c -0.469,0.469 -0.469,1.313 0,1.781 l 0.656,0.656 c 0.469,0.469 1.313,0.469 1.781,0 z M 1.25,17.688 h 3.969 c 0.688,0 1.25,-0.531 1.25,-1.219 V 15.5 c 0,-0.688 -0.563,-1.188 -1.25,-1.188 H 1.25 C 0.531,14.312 0,14.812 0,15.5 v 0.969 c 0,0.688 0.531,1.219 1.25,1.219 z m 17.531,0 h 3.969 c 0.719,0 1.25,-0.531 1.25,-1.219 V 15.5 c 0,-0.688 -0.531,-1.188 -1.25,-1.188 h -3.969 c -0.688,0 -1.25,0.5 -1.25,1.188 v 0.969 c 0,0.688 0.563,1.219 1.25,1.219 z M 5.594,24.781 8.407,22 c 0.469,-0.469 0.469,-1.281 0,-1.75 L 7.751,19.562 c -0.469,-0.469 -1.313,-0.469 -1.781,0 l -2.781,2.844 c -0.469,0.469 -0.469,1.281 0,1.75 l 0.656,0.625 c 0.469,0.469 1.281,0.469 1.75,0 z m 15.219,-2.375 -2.781,-2.844 c -0.469,-0.469 -1.313,-0.469 -1.781,0 l -0.656,0.688 c -0.469,0.469 -0.469,1.281 0,1.75 l 2.813,2.781 c 0.469,0.469 1.281,0.469 1.75,0 l 0.656,-0.625 c 0.469,-0.469 0.469,-1.281 0,-1.75 z m -7.125,4.344 v -3.969 c 0,-0.688 -0.531,-1.25 -1.219,-1.25 h -0.938 c -0.688,0 -1.219,0.563 -1.219,1.25 v 3.969 c 0,0.719 0.531,1.25 1.219,1.25 h 0.938 c 0.688,0 1.219,-0.531 1.219,-1.25 z"
       id="path1-4" /></g></svg>
