<?xml version="1.0" encoding="UTF-8" standalone="no"?>
<svg
   width="60"
   height="60"
   viewBox="0 0 60 60"
   fill="none"
   version="1.1"
   id="svg3"
   sodipodi:docname="icon_30.svg"
   inkscape:version="1.4.3 (0d15f75, 2025-12-25)"
   xmlns:inkscape="http://www.inkscape.org/namespaces/inkscape"
   xmlns:sodipodi="http://sodipodi.sourceforge.net/DTD/sodipodi-0.dtd"
   xmlns="http://www.w3.org/2000/svg"
   xmlns:svg="http://www.w3.org/2000/svg">
  <defs
     id="defs3" />
  <sodipodi:namedview
     id="namedview3"
     pagecolor="#ffffff"
     bordercolor="#000000"
     borderopacity="0.25"
     inkscape:showpageshadow="2"
     inkscape:pageopacity="0.0"
     inkscape:pagecheckerboard="0"
     inkscape:deskcolor="#d1d1d1"
     inkscape:zoom="1.4584077"
     inkscape:cx="3.7712362"
     inkscape:cy="64.796694"
     inkscape:window-width="1366"
     inkscape:window-height="697"
     inkscape:window-x="-8"
     inkscape:window-y="-8"
     inkscape:window-maximized="1"
     inkscape:current-layer="svg3" />
  <path
     d="m 16.955984,32.192225 c 1.0401,1.040136 2.72648,1.040136 3.766581,0 1.0401,-1.040137 1.0401,-2.726231 0,-3.766367 z M 8.2934825,15.996671 c -1.040101,-1.040103 -2.7264802,-1.040103 -3.7665804,0 -1.040101,1.0401 -1.040101,2.726477 0,3.76658 z M 6.4101934,15.216584 c -1.47093,0 -2.6633752,1.192448 -2.6633752,2.663375 0,1.47093 1.1924452,2.663375 2.6633752,2.663375 z m 49.7163266,5.32675 c 1.470895,0 2.663377,-1.192445 2.663377,-2.663375 0,-1.470927 -1.192482,-2.663375 -2.663377,-2.663375 z M 4.5269021,15.996671 c -1.040101,1.0401 -1.040101,2.726477 0,3.76658 1.0401002,1.040101 2.7264794,1.040101 3.7665804,0 z M 20.722565,7.3341686 c 1.0401,-1.0401032 1.0401,-2.7264794 0,-3.7665804 -1.040101,-1.0401002 -2.726481,-1.0401002 -3.766581,0 z M 45.580621,28.425858 c -1.040136,-1.040136 -2.72623,-1.040136 -3.766366,0 -1.040137,1.040136 -1.040137,2.72623 0,3.766367 z m 8.662716,16.195449 c 1.040136,1.040136 2.72623,1.040136 3.766367,0 1.040137,-1.040136 1.040137,-2.72623 0,-3.766367 z m 1.883183,0.780192 c 1.470895,0 2.663377,-1.192482 2.663377,-2.663375 0,-1.470894 -1.192482,-2.663375 -2.663377,-2.663375 z M 6.4101934,40.074749 c -1.47093,0 -2.6633752,1.192481 -2.6633752,2.663375 0,1.470893 1.1924452,2.663375 2.6633752,2.663375 z m 51.5995106,4.546558 c 1.040137,-1.040136 1.040137,-2.72623 0,-3.766367 -1.040137,-1.040137 -2.726231,-1.040137 -3.766367,0 z m -16.195449,8.662716 c -1.040137,1.040137 -1.040137,2.726231 0,3.766367 1.040136,1.040137 2.72623,1.040137 3.766366,0 z M 20.722565,28.425858 8.2934825,15.996671 4.5269021,19.763251 16.955984,32.192225 Z M 6.4101934,20.543334 H 56.12652 v -5.32675 H 6.4101934 Z M 8.2934825,19.763251 20.722565,7.3341686 16.955984,3.5675882 4.5269021,15.996671 Z M 41.814255,32.192225 54.243337,44.621307 58.009704,40.85494 45.580621,28.425858 Z M 56.12652,40.074749 H 6.4101934 v 5.32675 H 56.12652 Z M 54.243337,40.85494 41.814255,53.284023 45.580621,57.05039 58.009704,44.621307 Z"
     fill="#000000"
     id="path1"
     style="stroke-width:3.55116" />
</svg>
