<?xml version="1.0" encoding="UTF-8" standalone="no"?>
<svg
   width="64"
   height="64"
   viewBox="0 0 64 64"
   fill="none"
   version="1.1"
   id="svg3"
   sodipodi:docname="icon_32.svg"
   xml:space="preserve"
   inkscape:version="1.4.3 (0d15f75, 2025-12-25)"
   xmlns:inkscape="http://www.inkscape.org/namespaces/inkscape"
   xmlns:sodipodi="http://sodipodi.sourceforge.net/DTD/sodipodi-0.dtd"
   xmlns="http://www.w3.org/2000/svg"
   xmlns:svg="http://www.w3.org/2000/svg"><defs
     id="defs3" /><sodipodi:namedview
     id="namedview3"
     pagecolor="#ffffff"
     bordercolor="#000000"
     borderopacity="0.25"
     inkscape:showpageshadow="2"
     inkscape:pageopacity="0.0"
     inkscape:pagecheckerboard="0"
     inkscape:deskcolor="#d1d1d1"
     inkscape:zoom="1.9335938"
     inkscape:cx="39.046465"
     inkscape:cy="58.181818"
     inkscape:window-width="1366"
     inkscape:window-height="697"
     inkscape:window-x="-8"
     inkscape:window-y="-8"
     inkscape:window-maximized="1"
     inkscape:current-layer="svg3" /><g
     style="fill:#000000"
     id="g3"
     transform="matrix(0.90002219,0,0,0.90002219,-13.205214,-12.091347)"><path
       d="M 79.2,32.8 C 79,32.1 78.099,31.9 77.5,32.4 L 67.4,42.5 c -0.801,0.8 -2,0.8 -2.801,0 l -7.1,-7.1 c -0.8,-0.8 -0.8,-2 0,-2.8 l 10.2,-10.2 c 0.5,-0.5 0.3,-1.4 -0.4,-1.7 C 65.6,20.3 63.8,20 62,20 51.4,20 42.9,29.2 44.1,40 c 0.2,1.7 0.6,3.2 1.2,4.7 L 22,68.1 c -2.7,2.7 -2.7,7.2 0,9.9 1.4,1.4 3.2,2.1 5,2.1 1.8,0 3.6,-0.699 5,-2.1 L 55.3,54.7 c 1.5,0.6 3.101,1 4.7,1.2 10.9,1.2 20,-7.3 20,-17.9 0,-1.8 -0.3,-3.6 -0.8,-5.2 z"
       id="path1" /></g></svg>
